<svg id="visual" viewBox="0 0 900 600" width="900" height="600" xmlns="http://www.w3.org/2000/svg" xmlns:xlink="http://www.w3.org/1999/xlink" version="1.1"><path d="M0 235L129 234L257 186L386 186L514 168L643 152L771 205L900 216L900 0L771 0L643 0L514 0L386 0L257 0L129 0L0 0Z" fill="#f5730a"></path><path d="M0 165L129 188L257 198L386 119L514 137L643 202L771 179L900 127L900 0L771 0L643 0L514 0L386 0L257 0L129 0L0 0Z" fill="#da5b09"></path><path d="M0 113L129 88L257 143L386 134L514 137L643 115L771 147L900 95L900 0L771 0L643 0L514 0L386 0L257 0L129 0L0 0Z" fill="#be4407"></path><path d="M0 97L129 81L257 64L386 77L514 75L643 56L771 58L900 108L900 0L771 0L643 0L514 0L386 0L257 0L129 0L0 0Z" fill="#a32d04"></path><path d="M0 55L129 72L257 33L386 57L514 64L643 38L771 43L900 55L900 0L771 0L643 0L514 0L386 0L257 0L129 0L0 0Z" fill="#871400"></path></svg>